<?xml version="1.0" encoding="iso-8859-1"?>
<!-- Generator: Adobe Illustrator 19.0.0, SVG Export Plug-In . SVG Version: 6.00 Build 0)  -->
<svg version="1.1" id="Capa_1" xmlns="http://www.w3.org/2000/svg" xmlns:xlink="http://www.w3.org/1999/xlink" x="0px" y="0px"
	 viewBox="0 0 512 512" style="enable-background:new 0 0 512 512;" xml:space="preserve">
<path style="fill:#994C0F;" d="M344.836,89.944H45.022c-24.886,0-44.972,20.087-44.972,44.972v331.795
	c0,24.884,20.087,44.972,44.972,44.972h299.814c24.886,0,44.972-20.089,44.972-44.972V134.916
	C389.808,110.031,369.721,89.944,344.836,89.944z"/>
<path style="fill:#713708;" d="M389.808,134.916v331.795c0,24.884-20.087,44.972-44.972,44.972H194.929V89.944h149.907
	C369.721,89.944,389.808,110.031,389.808,134.916z"/>
<path style="fill:#CAE8F9;" d="M359.827,134.916v331.795c0,8.394-6.595,14.991-14.991,14.991H45.022
	c-8.396,0-14.991-6.597-14.991-14.991V134.916c0-8.396,6.595-14.991,14.991-14.991h299.814
	C353.231,119.926,359.827,126.521,359.827,134.916z"/>
<path style="fill:#A4D9F5;" d="M359.827,134.916v331.795c0,8.394-6.595,14.991-14.991,14.991H194.929V119.926h149.907
	C353.231,119.926,359.827,126.521,359.827,134.916z"/>
<path style="fill:#4F3F82;" d="M284.873,59.963h-16.49C261.487,25.784,231.206,0,194.929,0s-66.558,25.784-73.455,59.963h-16.49
	c-24.886,0-44.972,20.087-44.972,44.972v29.981c0,8.394,6.595,14.991,14.991,14.991h239.851c8.396,0,14.991-6.597,14.991-14.991
	v-29.981C329.845,80.049,309.758,59.963,284.873,59.963z"/>
<path style="fill:#3B2C68;" d="M329.845,104.935v29.981c0,8.394-6.595,14.991-14.991,14.991H194.929V0
	c36.279,0,66.558,25.784,73.455,59.963h16.49C309.758,59.963,329.845,80.049,329.845,104.935z"/>
<path d="M209.92,74.954c0,8.394-6.595,14.991-14.991,14.991c-8.396,0-14.991-6.597-14.991-14.991
	c0-8.396,6.595-14.991,14.991-14.991C203.325,59.963,209.92,66.558,209.92,74.954z"/>
<g>
	<path style="fill:#CAE8F9;" d="M209.92,74.954c0,8.394-6.595,14.991-14.991,14.991c-8.396,0-14.991-6.597-14.991-14.991
		c0-8.396,6.595-14.991,14.991-14.991C203.325,59.963,209.92,66.558,209.92,74.954z"/>
	<path style="fill:#CAE8F9;" d="M194.929,89.944V59.963c8.396,0,14.991,6.595,14.991,14.991
		C209.92,83.347,203.324,89.944,194.929,89.944z"/>
</g>
<g>
	<path style="fill:#1DAA4C;" d="M104.985,299.814c-3.938,0-7.773-1.552-10.598-4.392l-29.981-29.981
		c-5.855-5.855-5.855-15.342,0-21.198c5.855-5.855,15.342-5.855,21.198,0l15.269,15.269l20.685-41.356
		c3.719-7.392,12.692-10.409,20.115-6.705c7.407,3.704,10.409,12.707,6.705,20.115l-29.981,59.963
		c-2.152,4.304-6.251,7.319-11.009,8.096C106.58,299.755,105.775,299.814,104.985,299.814z"/>
	<path style="fill:#1DAA4C;" d="M104.985,421.739c-3.938,0-7.773-1.552-10.598-4.392l-29.981-29.981
		c-5.855-5.855-5.855-15.342,0-21.198c5.855-5.855,15.342-5.855,21.198,0l15.269,15.269l20.685-41.356
		c3.719-7.407,12.692-10.365,20.115-6.705c7.407,3.704,10.409,12.707,6.705,20.115l-29.981,59.963
		c-2.152,4.304-6.251,7.319-11.009,8.096C106.58,421.68,105.775,421.739,104.985,421.739z"/>
</g>
<path style="fill:#4DBBEB;" d="M314.855,239.851H224.91c-8.286,0-14.991-6.705-14.991-14.991s6.705-14.991,14.991-14.991h89.944
	c8.286,0,14.991,6.705,14.991,14.991S323.141,239.851,314.855,239.851z"/>
<path style="fill:#80C6F0;" d="M329.845,284.824c0,8.394-6.595,14.991-14.991,14.991H194.929c-8.396,0-14.991-6.597-14.991-14.991
	c0-8.396,6.595-14.991,14.991-14.991h119.926C323.249,269.833,329.845,276.428,329.845,284.824z"/>
<path style="fill:#4DBBEB;" d="M314.855,361.776H224.91c-8.286,0-14.991-6.705-14.991-14.991s6.705-14.991,14.991-14.991h89.944
	c8.286,0,14.991,6.705,14.991,14.991S323.141,361.776,314.855,361.776z"/>
<path style="fill:#80C6F0;" d="M329.845,406.748c0,8.394-6.595,14.991-14.991,14.991H194.929c-8.396,0-14.991-6.597-14.991-14.991
	c0-8.396,6.595-14.991,14.991-14.991h119.926C323.249,391.757,329.845,398.352,329.845,406.748z"/>
<path style="fill:#FCBF29;" d="M511.733,164.898v226.86l-25.784,29.981H452.07l-30.281-29.981v-226.86
	c0-2.4,0.601-4.498,1.499-6.597l29.981-59.963c2.699-5.096,8.096-7.795,13.492-7.795c5.396,0,10.793,2.699,13.492,7.795
	l29.981,59.963C511.132,160.4,511.733,162.498,511.733,164.898z"/>
<path style="fill:#FE9923;" d="M511.733,164.898v226.86l-25.784,29.981h-19.188V90.543c5.397,0,10.793,2.699,13.492,7.795
	l29.981,59.963C511.132,160.4,511.733,162.498,511.733,164.898z"/>
<g>
	<path style="fill:#4DBBEB;" d="M329.845,406.748c0,8.394-6.595,14.991-14.991,14.991H194.929v-29.981h119.926
		C323.249,391.757,329.845,398.352,329.845,406.748z"/>
	<path style="fill:#4DBBEB;" d="M314.855,299.814H194.929v-29.981h119.926c8.396,0,14.991,6.595,14.991,14.991
		C329.845,293.217,323.249,299.814,314.855,299.814z"/>
</g>
<path style="fill:#4F3F82;" d="M421.788,391.757v74.954c0,24.884,20.087,44.972,44.972,44.972s44.972-20.089,44.972-44.972v-74.954
	H421.788z"/>
<path style="fill:#3B2C68;" d="M510.868,391.441l1.077,74.946c0.358,24.881-19.438,45.256-44.321,45.614l-1.724-119.914
	L510.868,391.441z"/>
<g>
</g>
<g>
</g>
<g>
</g>
<g>
</g>
<g>
</g>
<g>
</g>
<g>
</g>
<g>
</g>
<g>
</g>
<g>
</g>
<g>
</g>
<g>
</g>
<g>
</g>
<g>
</g>
<g>
</g>
</svg>
